<svg preserveAspectRatio="xMidYMid meet" data-bbox="0 0 244.999 56.25" xmlns="http://www.w3.org/2000/svg" viewBox="0 0 244.999 56.25" height="63" width="245" data-type="tint" role="presentation" aria-hidden="true" aria-label="">
    <g>
        <path fill="#ffffff" d="M133.588 38.443c0-9.831-7.97-17.807-17.801-17.807s-17.801 7.976-17.801 17.807c0 9.832 7.97 17.807 17.801 17.807s17.801-7.975 17.801-17.807Zm-28.756 0c0 6.052 4.905 10.958 10.955 10.958s10.955-4.906 10.955-10.958c0-6.052-4.905-10.958-10.955-10.958s-10.955 4.906-10.955 10.958Z" clip-rule="evenodd" fill-rule="evenodd"></path>
        <path fill="#ffffff" d="M95.429 51.423c.319.587.172 1.324-.379 1.703a17.713 17.713 0 0 1-10.073 3.124c-9.831 0-17.801-7.975-17.801-17.807 0-9.831 7.97-17.807 17.801-17.807 3.739 0 7.209 1.154 10.073 3.124.55.38.698 1.116.379 1.703l-1.932 3.549c-.434.798-1.515.957-2.26.437a10.902 10.902 0 0 0-6.26-1.964c-6.05 0-10.955 4.906-10.955 10.958 0 6.052 4.905 10.958 10.955 10.958 2.327 0 4.485-.726 6.26-1.964.745-.52 1.826-.361 2.26.438l1.932 3.548Z"></path>
        <path fill="#ffffff" d="M154.813 20.636a17.72 17.72 0 0 1 10.954 3.771V7.621c0-.757.614-1.371 1.371-1.371h4.105c.757 0 1.371.614 1.371 1.371v30.822c0 9.832-7.97 17.807-17.801 17.807-9.832 0-17.802-7.975-17.802-17.807 0-9.831 7.97-17.807 17.802-17.807Zm-10.955 17.807c0 6.052 4.905 10.958 10.955 10.958s10.954-4.906 10.954-10.958c0-6.052-4.904-10.958-10.954-10.958-6.05 0-10.955 4.906-10.955 10.958Z" clip-rule="evenodd" fill-rule="evenodd"></path>
        <path fill="#ffffff" d="M209.607 39.814V22.689c0-.758-.614-1.372-1.372-1.372h-4.104c-.757 0-1.371.614-1.371 1.372v17.123c0 5.294-4.292 9.585-9.585 9.585-5.294 0-9.586-4.291-9.586-9.585V22.689c0-.758-.614-1.372-1.371-1.372h-4.104c-.757 0-1.371.614-1.371 1.372v17.125c0 9.075 7.357 16.432 16.432 16.432s16.432-7.357 16.432-16.432Z"></path>
        <path fill="#ffffff" d="M220.545 21.864a1.371 1.371 0 0 0-1.096-.547h-5.041c-1.131 0-1.776 1.292-1.096 2.196l10.609 14.102a1.37 1.37 0 0 1-.001 1.649l-10.608 14.102c-.68.903-.035 2.195 1.096 2.195h5.041c.431 0 .837-.203 1.096-.547l7.136-9.487a1.372 1.372 0 0 1 2.192 0l7.136 9.487c.259.344.665.547 1.096.547h5.041c1.131 0 1.776-1.292 1.096-2.195l-10.608-14.102a1.369 1.369 0 0 1 0-1.649l10.608-14.102c.68-.904.035-2.196-1.096-2.196h-5.041c-.431 0-.837.203-1.096.547l-7.136 9.487a1.37 1.37 0 0 1-2.192 0l-7.136-9.487Z"></path>
        <path fill="#ffffff" d="M39.702 20.956c0 2.214-.489 4.314-1.365 6.198 6.66 1.402 11.66 7.312 11.66 14.39 0 8.122-6.584 14.706-14.706 14.706H14.705C6.584 56.25 0 49.666 0 41.544c0-7.077 5-12.987 11.659-14.39a14.651 14.651 0 0 1-1.366-6.198c0-8.122 6.583-14.706 14.705-14.706 8.12 0 14.704 6.584 14.704 14.706Zm-7.911 4.515-5.113-2.76a3.577 3.577 0 0 0-3.405.004l-5.084 2.758c-1.025.556-1.025 2.029 0 2.585l5.084 2.758a3.577 3.577 0 0 0 3.405.004l5.113-2.76a1.47 1.47 0 0 0 0-2.589Z" clip-rule="evenodd" fill-rule="evenodd"></path>
        <path fill="#919191" d="M244.999 1.875v12.5c0 1.036-.84 1.875-1.875 1.875h-38.495a1.875 1.875 0 0 1-1.875-1.875v-12.5c0-1.036.84-1.875 1.875-1.875h38.495c1.036 0 1.875.84 1.875 1.875z"></path>
        <path d="M210.533 13.135c.41.36.955.54 1.635.54.83 0 1.495-.275 1.995-.825.5-.55.75-1.295.75-2.235V8.2c0-.95-.25-1.7-.75-2.25s-1.165-.825-1.995-.825c-.67 0-1.215.185-1.635.555a1.83 1.83 0 0 0-.596 1.17h-.049l.03-1.875v-2.4h-1.35v10.95h1.35V11.95h.019c.058.484.257.879.596 1.185Zm2.535-1.14c-.33.34-.78.51-1.35.51-.55 0-.99-.175-1.32-.525-.32-.35-.48-.835-.48-1.455v-2.25c0-.62.16-1.105.48-1.455.33-.35.77-.525 1.32-.525.57 0 1.02.17 1.35.51.33.34.495.83.495 1.47v2.25c0 .64-.165 1.13-.495 1.47Z" clip-rule="evenodd" fill-rule="evenodd"></path>
        <path d="M218.414 13.285c.49.26 1.06.39 1.71.39.87 0 1.595-.2 2.175-.6.59-.41.93-.96 1.02-1.65h-1.35c-.07.37-.265.65-.585.84-.32.18-.74.27-1.26.27-.61 0-1.08-.17-1.41-.51-.33-.35-.495-.85-.495-1.5V9.73h5.13V8.275c0-.64-.135-1.195-.405-1.665a2.7 2.7 0 0 0-1.125-1.095c-.48-.26-1.045-.39-1.695-.39-.65 0-1.22.13-1.71.39-.48.26-.855.625-1.125 1.095-.26.47-.39 1.025-.39 1.665v2.25c0 .63.13 1.185.39 1.665.27.47.645.835 1.125 1.095Zm3.615-4.575v-.435c0-.65-.165-1.15-.495-1.5-.32-.35-.79-.525-1.41-.525-.61 0-1.08.175-1.41.525-.33.35-.495.85-.495 1.5v.435h3.81Z" clip-rule="evenodd" fill-rule="evenodd"></path>
        <path d="M228.747 13.525c-.71 0-1.265-.19-1.665-.57-.39-.38-.585-.915-.585-1.605V6.505h-1.658v-1.23h1.658V2.95h1.35v2.325h3.15v1.23h-3.15v4.845c0 .63.3.945.9.945h2.25v1.23h-2.25Z"></path>
        <path d="M233.261 13.015c.5.44 1.185.66 2.055.66.77 0 1.385-.175 1.845-.525.41-.305.641-.705.693-1.2h.012v1.575h1.32v-5.67c0-.84-.275-1.505-.825-1.995-.55-.49-1.3-.735-2.25-.735-.87 0-1.595.21-2.175.63a2.38 2.38 0 0 0-1.005 1.695h1.35c.05-.35.24-.625.57-.825.33-.21.74-.315 1.23-.315.56 0 .99.14 1.29.42.31.27.465.66.465 1.17v.825h-2.55c-.85 0-1.525.22-2.025.66-.5.44-.75 1.045-.75 1.815 0 .76.25 1.365.75 1.815Zm3.96-.885c-.41.32-.935.48-1.575.48-.56 0-1-.13-1.32-.39-.31-.27-.465-.635-.465-1.095 0-.43.13-.77.39-1.02s.615-.375 1.065-.375h2.52v1.17c0 .5-.205.91-.615 1.23Z" clip-rule="evenodd" fill-rule="evenodd"></path>
    </g>
</svg>
